<svg version="1.2" xmlns="http://www.w3.org/2000/svg" viewBox="0 0 1024 1024" width="1024" height="1024">
	<style>
		.s0 { opacity: 1;fill: #04b3a9 } 
		.s1 { opacity: 1;fill: #04b5ab } 
		.s2 { opacity: 1;fill: #05aea5 } 
		.s3 { opacity: 1;fill: #05b1a8 } 
		.s4 { opacity: .99;fill: #05aba2 } 
		.s5 { opacity: .99;fill: #06a9a0 } 
		.s6 { opacity: .99;fill: #055c51 } 
		.s7 { opacity: .99;fill: #064a40 } 
		.s8 { opacity: .84;fill: #065046 } 
	</style>
	<filter id="f0">
		<feFlood flood-color="#34b27b" flood-opacity="1" />
		<feBlend mode="normal" in2="SourceGraphic"/>
		<feComposite in2="SourceAlpha" operator="in" />
	</filter>
	<g id="Background" filter="url(#f0)">
		<path id="Path 0" fill-rule="evenodd" class="s0" d="m419.5 346.4c3.43 0.18 7.72 1.18 10 2.32 2.2 1.11 5.91 4.09 8.25 6.64 3.07 3.35 4.05 5.13 3.52 6.39-0.44 1.06-0.34 1.5 0.25 1.12 0.54-0.34 0.98 0.11 0.98 1 0 0.9-0.68 2.16-1.5 2.8-1.14 0.89-1.8 0.89-2.77 0-0.7-0.64-1.44-0.94-1.63-0.67-0.2 0.28-1.88 2.98-3.73 6-2.77 4.52-3.41 5.1-3.62 3.25-0.24-2.15-0.38-2.1-3.07 1-1.55 1.79-3.58 4.38-6.2 8.25l0.09-5-1.9 2.5c-1.04 1.38-2.84 5.2-3.99 8.5-1.15 3.3-2.29 6.9-2.52 8-0.24 1.1-0.53-0.25-0.66-3-0.13-2.75-0.43-4.1-0.67-3-0.24 1.1-0.96 3.35-1.6 5-0.63 1.65-1.06 4.01-0.94 5.25 0.12 1.24-0.35 2.59-1.03 3q-1.23 0.74-0.5-0.5c0.52-0.87 0.06-1.17-1.51-1-1.88 0.21-2.29-0.28-2.5-3-0.24-3.14-0.33-3.2-2.5-1.74-1.24 0.83-3.26 1.5-4.5 1.5-1.73-0.01-2.25-0.59-2.25-2.51 0-2.41-0.17-2.47-4.51-1.75-4.24 0.7-4.52 0.61-4.5-1.5 0.01-1.77-0.68-2.36-3.24-2.77-1.79-0.28-3.84-0.62-4.55-0.75-0.81-0.14-1.07-0.99-0.7-2.23 0.33-1.1 0.7-2.45 0.82-3 0.13-0.55 4-6.62 8.62-13.5 4.61-6.87 10-14.47 11.97-16.87 1.98-2.41 4.94-5.1 6.59-5.99 1.65-0.88 4.57-2.16 6.5-2.83 1.93-0.67 6.2-1.08 9.5-0.91zm194.5-0.33c2.48-0.05 6.86 0.59 9.75 1.42 2.89 0.83 6.88 2.97 8.88 4.76 1.99 1.79 4.8 5.28 6.24 7.75 1.44 2.48 2.51 5.06 2.37 5.75-0.13 0.69 0.1 1.07 0.51 0.85 0.41-0.23 0.86 0.67 1 2 0.14 1.33-0.19 2.18-0.75 1.9-0.55-0.27-1 0.4-1 1.5 0 1.1-0.45 1.78-1 1.5-0.55-0.27-1.03-0.16-1.08 0.25-0.04 0.41-0.28 1.65-0.53 2.75-0.25 1.1-0.55 2.97-0.67 4.14-0.12 1.18-0.57 2.53-1 3-0.43 0.48-0.77-2.96-0.74-16.14l-2.31 4.5c-1.99 3.86-2.3 5.92-2.24 14.5 0.05 7.11 0.51 10.65 1.57 12.25 0.83 1.24 1.84 2.26 2.25 2.25 0.41 0 0.76-2.59 0.77-5.75 0.01-4.08 0.29-5.31 0.98-4.25 0.53 0.83 0.98 2.96 0.98 4.75 0.02 2.32 1.02 4.32 3.52 7 1.92 2.06 3.49 3.19 3.5 2.5 0-0.89 0.85-0.74 2.92 0.5 1.61 0.96 2.73 2.09 2.5 2.5-0.23 0.41 0.25 0.75 1.08 0.75 0.83 0 1.55 0.79 1.62 1.75 0.06 0.96 0.44 0.4 0.84-1.25 0.65-2.7 0.81-2.8 1.56-1 0.46 1.1 1.15 2.23 1.53 2.5 0.38 0.28 1.85 2.98 5.83 11.5l0.03-7c0.02-3.85 0.29-6.77 0.6-6.5 0.31 0.28 0.69 2.75 0.85 5.5 0.16 2.75 0.78 6.13 1.36 7.5 0.59 1.38 2.13 5.82 5.78 17.24l1.02-9.74 2.13 4c1.18 2.2 2.18 4.34 2.24 4.75 0.06 0.41 0.39 2.66 0.73 5 0.34 2.34 1.22 5.38 1.96 6.75 1.21 2.25 1.34 1.61 1.35-6.5 0.01-4.95 0.25-8.77 0.55-8.5 0.29 0.28 0.72 1.4 0.95 2.5 0.23 1.1 0.45 2.34 0.49 2.75 0.05 0.41 0.64 0.41 1.32 0q1.23-0.74 0.5 0.5c-0.41 0.69-0.42 1.81-0.03 2.5 0.39 0.69 0.77 2.83 0.83 4.75 0.07 1.93 1.11 4.85 4.53 9.5l0.05-8 2.19 4.5c1.21 2.48 2.64 4.99 3.19 5.59 0.55 0.59 2.8 4.3 5 8.22 2.85 5.1 4.57 7.15 6 7.17 1.1 0.02 8.3-0.64 16-1.46 7.7-0.83 19.17-2.15 25.5-2.94 8.78-1.1 11.65-1.16 12.12-0.26 0.48 0.89 0.78 0.87 1.25-0.07 0.35-0.69 1.3-1.02 2.13-0.75 0.83 0.28 1.27 0.05 1-0.5-0.27-0.55 0.17-1 1-1 0.83 0 1.27 0.45 1 1-0.27 0.55 0.62 1.11 1.98 1.25 1.44 0.15 2.49-0.27 2.5-1q0.02-1.25 2-0.5c1.1 0.41 1.77 0.86 1.5 1-0.26 0.14 0.19 0.93 1.02 1.75 0.83 0.83 1.95 1.5 2.5 1.5 0.55 0 1 0.45 1 1 0 0.55-1.35 1.45-3 2-2.27 0.76-3 1.61-3 3.5 0 1.91 0.65 2.65 2.75 3.13 2.36 0.53 2.5 0.75 1 1.5-0.96 0.48-2.51 2.33-5.11 7.37l-0.72-2.5c-0.61-2.13-0.75-2.2-0.94-0.5-0.12 1.1-0.16 2.34-0.1 2.75 0.07 0.41-0.67 0.76-1.63 0.76-0.96 0.01-2.76 0.24-4 0.5-1.94 0.42-2.25 0.08-2.25-2.51 0-1.65-0.34-3.01-0.75-3.01-0.41-0.01-1.53 1.23-2.48 2.75-0.95 1.52-1.4 3.11-1 3.54 0.4 0.43-0.06 0.76-1.02 0.75-0.96-0.02-1.52 0.42-1.25 0.97 0.3 0.6-0.59 0.79-2.25 0.47-1.51-0.29-2.98-0.14-3.25 0.33-0.27 0.48-6.8 1.76-14.5 2.85-10.83 1.53-13.96 2.3-13.8 3.41 0.11 0.79 3.27 6.62 7.03 12.94 5.67 9.54 6.79 12.14 6.55 15.25-0.15 2.06-0.73 3.75-1.28 3.75-0.55 0-1-0.9-1-2 0-1.1-0.34-2-0.75-2.01-0.41-0.01-1.87-2.55-5.75-11.3l-1 6.68-3-5.73c-1.65-3.16-3.29-5.83-3.64-5.94-0.34-0.11-2.69-3.57-5.21-7.7-2.52-4.12-4.61-8.17-4.63-9-0.04-1.16-0.22-1.21-0.79-0.19-0.52 0.94-1.51 0.3-3.48-2.25-1.51-1.96-3.42-3.56-4.25-3.56-0.83 0-1.49 0.56-1.48 1.25 0 0.69-1.68-0.43-3.75-2.49-2.08-2.05-4.33-3.74-5.02-3.75-0.69 0-2.83-1.81-4.75-4.01-1.92-2.2-3.95-3.77-4.5-3.5-0.55 0.28-4.04-2.71-7.75-6.63-3.71-3.93-8.89-9.44-11.52-12.25-2.62-2.82-4.87-5.9-5-6.85-0.12-0.95-2.48-4.64-5.23-8.2-2.75-3.55-5.56-6.26-6.25-6.01-0.69 0.24-3.39-1.3-6-3.42-2.61-2.12-6.44-4.37-8.5-5-2.16-0.66-3.75-1.78-3.75-2.64 0-0.97-1.94-2.03-5.5-3-3.02-0.82-6.4-1.27-7.5-1-1.63 0.41-1.81 0.87-1 2.5 0.55 1.1 1.01 2.34 1.03 2.75 0.01 0.41-1.02-0.82-2.29-2.75-1.28-1.92-2.74-3.5-3.26-3.5-0.52 0-2.53 2.12-4.46 4.71-1.94 2.59-3.75 4.39-4.02 4-0.27-0.39-1.06-0.82-1.75-0.96-0.69-0.14-3.95 2.45-7.25 5.75-3.3 3.3-5.77 6.45-5.5 7 0.27 0.55 0.16 0.91-0.25 0.79-0.41-0.11-2.21 1.24-4 3-1.79 1.77-3.25 3.66-3.25 4.21 0 0.55-0.45 0.78-1 0.5-0.55-0.27-1.23 0.4-1.5 1.5-0.27 1.1-1.17 2-2 2-0.83 0-1.5 0.68-1.5 1.5 0 0.83-0.45 1.5-1 1.5-0.55 0-1 0.56-1 1.25 0.01 0.69-0.89 1.81-2 2.5-1.1 0.69-2 1.7-2 2.25 0 0.55-1.24 3.49-2.75 6.53-1.51 3.04-3.09 5.52-3.5 5.5-0.41-0.02-0.75 0.42-0.75 0.97 0 0.55-0.74 2.69-1.64 4.75-1.23 2.81-1.83 3.37-2.4 2.25-0.51-1.03-1.18 0.14-2.11 3.68-0.78 3-1.77 4.89-2.34 4.5-0.58-0.4-0.69-0.17-0.25 0.57 0.41 0.7-0.13 2.46-1.23 4-1.09 1.51-1.76 3.09-1.5 3.5 0.26 0.41-0.09 1.09-0.77 1.5q-1.23 0.74-0.5-0.5c0.41-0.69 0.51-1.25 0.24-1.25-0.27 0-1.06 1.3-1.75 2.88-0.69 1.59-4.17 6.16-7.75 10.15-3.58 4-9.2 10.24-12.5 13.87-3.3 3.63-10.27 10.7-15.5 15.7-5.23 4.99-11.3 10.71-13.5 12.7-2.2 1.99-4.34 3.64-4.75 3.66-0.41 0.02 0.78-1.42 2.64-3.21 3.39-3.24 3.39-3.26 1.75-6.52-0.9-1.8-1.98-3.26-2.39-3.25-0.41 0.01-0.77 1.03-0.79 2.27-0.03 2.24-0.03 2.24-1.25 0.17-0.66-1.15-2.11-3.27-3.21-4.71-1.1-1.44-3.13-2.85-4.5-3.13-1.38-0.28-4.19-2.44-6.25-4.79-2.06-2.36-3.75-4.63-3.75-5.04 0-0.41-1.35-3-3-5.75-1.65-2.75-2.77-5-2.5-5 0.27 0-0.29-1.36-1.25-3.01-0.96-1.66-2.31-3.01-3-3-0.69 0-1.25-0.44-1.25-0.99 0-0.55 0.44-1.11 0.97-1.25 0.54-0.14 1.11-1.15 1.28-2.25 0.17-1.1 0.63-2.56 1.03-3.25 0.4-0.69 1.28-0.91 1.96-0.5 0.74 0.45 0.95 0.35 0.53-0.25-0.39-0.55 2.86-4.37 7.23-8.5 4.37-4.12 7.62-7.95 7.23-8.5-0.39-0.55-0.27-0.68 0.28-0.28 0.54 0.4 2-0.39 3.24-1.75 1.24-1.36 2.24-3.03 2.22-3.72-0.01-0.69 0.32-0.9 0.75-0.46 0.43 0.43 1.23-0.09 1.78-1.15 0.55-1.07 4.82-6.36 9.5-11.75 4.68-5.39 10.3-11.76 12.5-14.15 2.2-2.39 4.56-4.1 5.25-3.79 0.69 0.3 1.25-0.12 1.25-0.95 0-0.82 0.45-1.5 1-1.5 0.55 0 1 0.45 1 1 0 0.55 1.58 1 3.5 1 1.92 0 3.5 0.45 3.5 1 0 0.66 0.94 0.67 2.75 0.04 1.51-0.53 3.42-1.67 4.25-2.54 0.83-0.88 2.06-1.57 2.75-1.54 0.69 0.02 2.75-1.42 4.59-3.21 1.84-1.79 5.21-4.94 7.5-7 2.29-2.06 4.61-3.75 5.16-3.75 0.55 0 2.91-1.61 5.25-3.58 2.34-1.97 5.94-4.9 8-6.5 2.06-1.61 3.92-2.81 4.13-2.67 0.21 0.14 2.25-2 4.52-4.75 2.27-2.75 4.58-5 5.12-5 0.55 0 1.89-1.46 2.99-3.25 1.09-1.79 2.33-3.24 2.74-3.23 0.41 0.01 2.55-2.73 4.75-6.09 2.2-3.36 4.03-6.41 4.06-6.77 0.04-0.36 0.69-2.68 1.45-5.16 1.1-3.61 1.5-4.1 2.02-2.5 0.46 1.41 1.18-0.2 2.44-5.5 0.99-4.12 2.45-9.07 3.26-11 0.81-1.92 1.67-5.97 1.91-9 0.23-3.02 1.31-6.96 2.39-8.75 1.45-2.39 1.64-3.36 0.72-3.67-0.69-0.23 0.77-0.46 3.25-0.51zm-201.5 56.43c0.79 1.1 1.9 2.56 2.47 3.25 0.82 0.99 1.55 0.94 3.53-0.25 1.37-0.82 3.4-1.27 4.5-1 1.1 0.28 2.9 0.73 4 1q2 0.5 2-1c0-1.18 0.79-1.01 3.75 0.84 2.06 1.29 4.21 2.53 4.77 2.75 0.57 0.23 3.22 1.99 5.91 3.91 2.69 1.93 6.47 5.08 8.41 7 1.94 1.93 3.89 3.39 4.34 3.25 0.45-0.14 2.17 1.33 3.82 3.25 1.65 1.93 3.45 3.5 4 3.5 0.55 0 1.11-0.77 1.25-1.71 0.17-1.17 1.5 0.03 4.16 3.75 3.25 4.53 4.01 5.14 4.5 3.55 0.53-1.7 1.03-1.49 9.03 5.91l0.03-2.75c0.02-1.51 0.48-2.75 1.03-2.75 0.55 0 1.68 1.13 2.5 2.5 0.82 1.38 1.84 2.33 2.25 2.12 0.41-0.21 0.75 0.36 0.75 1.25 0 0.9 0.56 1.52 1.25 1.38 0.87-0.17 0.74 0.73-0.46 3-0.93 1.79-1.63 3.48-1.54 3.75 0.09 0.28-2.86 3.53-6.54 7.23-2.1 2.09-3.97 3.78-5.21 4.7q0.03-0.18-0.26-0.68c-0.41-0.69-1.3-1-1.99-0.7-0.74 0.32-2.95-1.84-5.38-5.25-2.28-3.19-7.28-9.17-11.13-13.3-4.56-4.89-9.22-8.7-13.37-10.94-3.5-1.89-6.93-4.02-7.62-4.75-0.69-0.72-2.82-1.31-4.75-1.31-1.93 0-4.85 0.68-6.5 1.5-1.65 0.83-3.15 2.06-3.33 2.75-0.18 0.69-1.64-0.68-3.25-3.04-1.6-2.36-3.03-4.27-3.17-4.25-0.14 0.02-1.15 1.5-2.25 3.29-1.09 1.79-2 2.8-2.01 2.25-0.01-0.55-0.35-0.45-0.76 0.23-0.43 0.72-1.24-0.91-1.96-4-0.93-3.95-0.96-6.21-0.12-9.23 0.61-2.2 1.25-5.8 1.41-8 0.17-2.2 0.35-4.22 0.4-4.5 0.06-0.27 0.75 0.4 1.54 1.5zm64.38 58.52c-0.87 0.64-1.38 0.86-1.38 0.55 0-0.76 0.45-1.08 0.99-0.72q0.26 0.17 0.39 0.17zm0.12-0.09q-0.01 0.1-0.12 0.09 0.06-0.04 0.12-0.09zm-169.75 53.56c2.34 1.92 4.59 3.27 5 3 0.41-0.27 1.99 0.28 3.5 1.23 1.51 0.94 3.88 1.82 5.25 1.94 1.38 0.13 4.3 0.43 6.5 0.68 2.2 0.25 6.32 0.84 9.15 1.31 5.02 0.83 5.15 0.94 5 4.1-0.08 1.79 0.19 3.25 0.6 3.25 0.41 0 0.52 0.67 0.25 1.5-0.27 0.83 0.06 1.84 0.74 2.25q1.23 0.74 0.5-0.5c-0.41-0.69-0.4-1.24 0.01-1.23 0.41 0 1.2 0.34 1.75 0.75 0.55 0.4 1 1.46 1 2.36 0 0.89-0.44 1.34-0.98 1-0.59-0.38-0.69 0.06-0.25 1.12 0.43 1.04 0.27 1.85-0.41 2-0.63 0.14-1.25 0.92-1.37 1.75-0.13 0.83-2.53 5.33-5.33 10-2.8 4.67-5.55 9.17-6.13 10-0.84 1.21-0.99 1.06-0.78-0.79 0.2-1.8-0.7-2.79-4.25-4.67-2.48-1.31-6.3-3.11-8.5-4.01-2.2-0.9-5.35-1.83-7-2.07-1.65-0.24-5.48-0.65-8.5-0.91-3.37-0.29-6.25-1.16-7.42-2.26-1.06-0.98-1.51-1.14-1-0.34 0.59 0.93 0.56 1.27-0.08 0.95-0.55-0.28-2.8-1.3-5-2.27-2.27-1-4.22-1.36-4.5-0.82-0.31 0.58-1.46 0.55-3-0.07-1.37-0.56-3.28-1.06-4.24-1.13-0.96-0.06-1.73 0.34-1.71 0.89 0.02 0.55-0.73 1.67-1.67 2.5-0.94 0.83-1.52 1.03-1.29 0.46 0.22-0.58 3.79-6.56 7.91-13.3 4.13-6.74 7.84-12.23 8.25-12.21 0.41 0.03 0.52-0.4 0.25-0.95-0.27-0.55 0.63-1.67 2-2.5 1.48-0.89 2.3-2.11 2-3-0.27-0.83-0.05-1.27 0.5-1 0.55 0.28 1.23 0.05 1.5-0.5 0.31-0.63 1.07-0.53 2.02 0.25 0.84 0.69 1.85 0.92 2.25 0.51 0.4-0.41 1.31-0.19 2.02 0.5 1.04 0.99 1.31 0.94 1.37-0.26 0.04-0.83 0.02-1.84-0.04-2.25-0.07-0.41 1.79 0.82 4.13 2.74zm429.45 14.51c0.4 0 1.9 2.14 3.33 4.75 1.43 2.61 2.94 5.65 3.34 6.75 0.45 1.2 0.39 1.6-0.15 1-0.49-0.55-2.32-3.59-4.07-6.75-1.75-3.16-2.85-5.75-2.45-5.75z"/>
		<path id="Path 1" class="s1" d="m441.01 361.5c0.01 0.55 0.43 1.68 0.93 2.5 0.63 1.04 0.4 1.86-0.76 2.67-1.28 0.89-1.98 0.89-2.95 0-0.7-0.64-1.44-0.94-1.63-0.67-0.2 0.27-1.88 2.98-3.73 6-2.77 4.52-3.41 5.1-3.62 3.25-0.24-2.15-0.38-2.1-3.07 1-1.55 1.79-3.58 4.38-4.51 5.75l-1.69 2.5 0.09-5c-2.94 3.88-4.74 7.7-5.89 11-1.15 3.3-2.29 6.9-2.52 8-0.24 1.1-0.53-0.25-0.66-3-0.13-2.75-0.43-4.1-0.67-3-0.24 1.1-0.96 3.35-1.6 5-0.63 1.65-1.06 4.01-0.94 5.25 0.12 1.24-0.35 2.59-1.03 3q-1.23 0.74-0.5-0.5c0.52-0.87 0.06-1.17-1.51-1-1.88 0.21-2.29-0.28-2.5-3-0.24-3.14-0.33-3.2-2.5-1.74-1.24 0.83-3.26 1.5-4.5 1.5-1.73-0.01-2.25-0.59-2.25-2.51 0-2.41-0.17-2.47-4.51-1.75-4.24 0.7-4.52 0.61-4.5-1.5 0.01-1.77-0.68-2.36-3.24-2.77-1.79-0.28-3.81-0.62-4.5-0.75-0.69-0.13-1.25-0.57-1.25-0.98 0-0.41 0.51-1.76 1.12-3 0.71-1.41 0.73-1.88 0.07-1.25-0.58 0.55-8.44 12.25-17.47 26-9.02 13.75-24.66 37.82-34.73 53.5-10.08 15.68-21.31 33.23-24.96 39-3.65 5.77-6.98 11.17-7.42 12-0.43 0.83 0.54-0.08 2.16-2 1.99-2.38 3.14-3.1 3.58-2.25 0.36 0.69 1.21 1.05 1.9 0.81 0.69-0.24 1.82 0.1 2.52 0.75 0.98 0.93 1.29 0.86 1.37-0.31 0.05-0.83 0.04-1.84-0.02-2.25-0.07-0.41 1.79 0.82 4.13 2.74 2.34 1.92 4.59 3.27 5 3 0.41-0.27 1.99 0.28 3.5 1.23 1.51 0.94 3.88 1.82 5.25 1.94 1.38 0.13 4.3 0.43 6.5 0.68 2.2 0.25 6.32 0.84 9.15 1.31 5.02 0.83 5.15 0.94 5 4.1-0.08 1.79 0.19 3.25 0.6 3.25 0.41 0 0.52 0.67 0.25 1.5-0.27 0.83 0.06 1.84 0.74 2.25q1.23 0.74 0.5-0.5c-0.41-0.69-0.51-1.25-0.24-1.25 0.27 0 1.18 0.23 2 0.5 1.14 0.38 1.26 0.98 0.5 2.5-0.55 1.1-0.89 2.21-0.75 2.47 0.14 0.26 15.2-24.38 33.47-54.75 18.27-30.37 33.23-55.67 33.23-56.22 0.01-0.55-0.31-0.45-0.72 0.23-0.43 0.72-1.24-0.91-1.96-4-0.93-3.95-0.96-6.21-0.12-9.23 0.61-2.2 1.17-5.65 1.23-7.66 0.07-2.02 0.46-3.93 0.87-4.25 0.41-0.33 1.27 0.42 1.9 1.66 0.63 1.24 1.64 2.55 2.25 2.91 0.6 0.37 2.11 0.03 3.35-0.75 1.24-0.77 3.04-1.22 4-0.99 0.96 0.23 2.76 0.68 4 1 1.59 0.41 2.25 0.14 2.25-0.92 0-1.18 0.79-1.01 3.75 0.84 2.06 1.29 4.21 2.53 4.77 2.75 0.57 0.23 3.22 1.98 5.91 3.91 2.69 1.93 6.47 5.07 8.41 7 1.94 1.93 3.89 3.39 4.34 3.25 0.45-0.14 2.17 1.32 3.82 3.25 1.65 1.93 3.45 3.5 4 3.5 0.55 0 1.11-0.77 1.25-1.71 0.17-1.17 1.5 0.03 4.16 3.75 3.25 4.53 4.01 5.14 4.5 3.55 0.53-1.7 1.03-1.49 4.81 2l4.22 3.91c0.05-4.26 0.51-5.5 1.06-5.5 0.55 0 2.35 2.02 4 4.5 2.9 4.36 2.95 4.59 1.35 7.25l-1.66 2.75c3.39-3.1 4.35-4.45 4.32-5-0.04-0.55-3.59-6.85-7.9-14-4.31-7.15-11.57-19.07-16.13-26.5-4.56-7.43-11.88-19.35-16.28-26.5-4.4-7.15-8.61-13.9-9.36-15-0.74-1.1-1.35-1.55-1.33-1zm200.37 4.75c0.34 0.96 0.95 2.54 1.35 3.5 0.52 1.24 0.37 1.53-0.5 1q-1.22-0.74-1.23 1.25c0 1.1-0.45 1.77-1 1.5-0.55-0.27-1.03-0.16-1.08 0.25-0.04 0.41-0.28 1.65-0.53 2.75-0.25 1.1-0.55 2.97-0.67 4.14-0.12 1.18-0.57 2.53-1 3-0.43 0.48-0.77-2.96-0.76-7.64l0.02-8.5c-4.3 8.36-4.61 10.42-4.55 19 0.05 7.11 0.51 10.65 1.57 12.25 0.83 1.24 1.84 2.26 2.25 2.25 0.41 0 0.76-2.59 0.77-5.75 0.01-4.08 0.29-5.31 0.98-4.25 0.53 0.82 0.98 2.96 0.98 4.75 0.02 2.32 1.02 4.32 3.52 7 1.92 2.06 3.49 3.19 3.5 2.5 0-0.89 0.85-0.74 2.92 0.5 1.61 0.96 2.73 2.09 2.5 2.5-0.23 0.41 0.25 0.75 1.08 0.75 0.83 0 1.55 0.79 1.62 1.75 0.06 0.96 0.44 0.4 0.84-1.25 0.65-2.7 0.81-2.8 1.56-1 0.46 1.1 1.15 2.23 1.53 2.5 0.38 0.27 1.85 2.98 3.26 6l2.57 5.5c0.05-10.85 0.32-13.77 0.63-13.5 0.31 0.27 0.69 2.75 0.85 5.5 0.16 2.75 0.78 6.12 1.36 7.5 0.59 1.37 2.13 5.82 3.43 9.87l2.35 7.37 1.02-9.74c3.7 6.98 4.71 9.11 4.63 9.25-0.08 0.14 0.13 2.16 0.47 4.5 0.34 2.34 1.22 5.38 1.96 6.75 1.21 2.26 1.34 1.62 1.39-6.5 0.05-8.95 0.02-9.05-4.77-17.5-2.65-4.68-11.06-19.52-18.69-33-7.62-13.48-14.51-25.4-15.31-26.5-1.12-1.55-1.31-1.61-0.82-0.25zm-50.54 69.92c-3.21 3.2-5.61 6.28-5.34 6.83 0.27 0.55 0.16 0.91-0.25 0.79-0.41-0.11-2.21 1.24-4 3-1.79 1.77-3.25 3.66-3.25 4.21 0 0.55-0.45 0.77-1 0.5-0.55-0.27-1.23 0.4-1.5 1.5-0.27 1.1-1.17 2-2 2-0.83 0-1.5 0.68-1.5 1.5 0 0.82-0.45 1.5-1 1.5-0.55 0-1 0.56-1 1.25 0.01 0.69-0.89 1.81-2 2.5-1.1 0.69-2 1.7-2 2.25 0 0.55-1.24 3.49-2.75 6.53-1.51 3.04-3.09 5.52-3.5 5.5-0.41-0.02-0.75 0.42-0.75 0.97 0 0.55-0.74 2.69-1.64 4.75-1.23 2.81-1.83 3.37-2.4 2.25-0.51-1.03-1.18 0.14-2.11 3.68-0.78 3.01-1.77 4.9-2.35 4.51-0.59-0.4-0.69-0.16-0.25 0.57 0.44 0.73-0.41 2.79-2.06 4.99-1.55 2.06-3.19 4.43-3.65 5.25q-0.84 1.5 0.17 0.5c0.55-0.55 4.78-5.55 9.4-11.11 4.61-5.56 13.7-17.04 20.2-25.5 6.49-8.46 14.93-19.55 18.75-24.64 3.82-5.09 6.86-9.85 6.77-10.58-0.09-0.74-0.84-1.34-1.66-1.34-0.82 0-4.12 2.63-7.33 5.84zm92.81 5.08c0.95 1.79 1.79 4.82 1.87 6.75 0.08 1.93 1.13 4.85 2.35 6.5l2.2 3c-0.06-6.18-1.3-9.61-3.57-13.5-1.92-3.3-3.74-6-4.04-6-0.3 0 0.23 1.46 1.19 3.25zm115.21 23.12c-14.11 1.72-25.99 3.47-26.42 3.88-0.42 0.41 0.05 0.75 1.06 0.75 1.01 0 1.53 0.23 1.17 0.5-0.37 0.27 0 1.18 0.83 2 0.83 0.82 1.95 1.5 2.5 1.5 0.55 0 1 0.45 1 1 0 0.55-1.35 1.45-3 2-2.27 0.76-3 1.61-3 3.5 0 1.91 0.65 2.65 2.75 3.13 2.36 0.53 2.5 0.75 1 1.5-0.96 0.48-2.51 2.33-3.43 4.12l-1.68 3.25c-1.33-4.63-1.47-4.7-1.66-3-0.12 1.1-0.16 2.34-0.1 2.75 0.07 0.41-0.67 0.76-1.63 0.76-0.96 0.01-2.76 0.24-4 0.5-1.94 0.42-2.25 0.08-2.25-2.51 0-1.65-0.34-3.01-0.75-3.01-0.41-0.01-1.53 1.23-2.48 2.75-0.95 1.52-1.4 3.11-1 3.54 0.4 0.43-0.06 0.76-1.02 0.75-0.96-0.02-1.9 0.35-2.09 0.83-0.19 0.47 0.6 0.69 1.75 0.49 1.15-0.19 10.86-1.7 21.59-3.34 10.73-1.64 21.3-3.49 23.5-4.11 2.2-0.62 5.58-1.93 7.5-2.92 1.92-0.98 6.88-5.32 11-9.64 4.13-4.32 8.63-9.32 10.01-11.1l2.52-3.24c-6.22 0.19-19.57 1.65-33.67 3.37z"/>
		<path id="Path 2" class="s2" d="m429 438c0 0.55-0.45 0.77-1 0.5-0.55-0.27 2.34 4.79 6.42 11.25 4.08 6.46 10.16 16.36 13.5 22 3.34 5.64 6.53 10.02 7.08 9.75 0.55-0.27 0.77 0.18 0.5 1-0.27 0.82-0.05 1.73 0.5 2 0.55 0.27 3.67-2.54 6.92-6.25 3.26-3.71 5.85-7.2 5.75-7.75-0.09-0.55-0.51-0.89-0.92-0.75-0.41 0.14-0.75-0.43-0.75-1.25 0-0.82-0.56-2.47-1.25-3.65-0.69-1.19-3.15-4.23-5.48-6.75-2.33-2.53-4.24-5.05-4.25-5.6-0.01-0.55-1.37-2.24-3.02-3.75-1.65-1.51-3.45-2.75-4-2.75-0.55 0-1.21-0.79-1.46-1.75-0.26-1.01-2.38-2.38-5.02-3.25-2.51-0.82-4.78-2.06-5.04-2.75-0.27-0.71-2.2-1.25-4.48-1.25-2.2 0-4 0.45-4 1zm193.5 6.14c0 1.02 0.23 1.86 0.5 1.86 0.27 0 0.53 0.56 0.58 1.25 0.04 0.69 4.18 8.68 9.2 17.75 5.01 9.07 9.39 17.18 9.71 18 0.48 1.2-2.07 2.19-12.7 4.91-7.31 1.87-13.6 3.9-13.98 4.5-0.39 0.6-1.06 0.78-1.5 0.4-0.45-0.38-3.73 0.19-7.31 1.27-3.58 1.08-7.63 2.19-9 2.45-1.38 0.27-8.13 1.91-15 3.66-11.97 3.04-12.68 3.37-16.79 7.74-2.35 2.51-6.37 7.27-8.92 10.57-3.03 3.92-3.63 5.05-1.72 3.27 1.61-1.5 4.05-2.75 5.43-2.78 1.37-0.02 2.87 0.3 3.33 0.73 0.46 0.43 1.14 0.82 1.5 0.86 0.37 0.05 1.91 0.38 3.42 0.75 1.51 0.37 2.96 1.46 3.21 2.42 0.25 0.96 1.37 2.54 2.5 3.5q2.05 1.75 1.31 3.5c-0.57 1.38-0.41 1.55 0.75 0.81 1.28-0.81 1.27-0.7-0.02 0.79-1.08 1.25-1.15 1.73-0.25 1.69 0.69-0.02 1.02 0.41 0.75 0.96-0.27 0.55-0.05 1 0.5 1 0.55 0 1.9-0.45 3-1 1.1-0.55 2-0.77 2-0.5 0 0.27-1.91 1.43-4.25 2.57-2.34 1.14-3.35 1.86-2.25 1.58 1.1-0.27 11.23-3.65 22.5-7.52 11.27-3.87 24.55-8.22 29.5-9.66 4.95-1.44 13.5-3.93 19-5.53 5.5-1.6 10.56-2.92 11.25-2.92 0.69-0.01 2.37 2.23 3.75 4.98 1.37 2.75 2.73 5 3 5 0.27 0 0.27-0.67 0-1.5-0.32-0.95 0.14-1.5 1.25-1.5 0.96-0.01 6.02 2.09 11.25 4.66 5.23 2.57 12.65 7.24 16.5 10.37 3.85 3.13 12.4 11.21 19 17.94 6.6 6.74 14.1 14.34 16.67 16.89 2.57 2.55 5.27 4.76 6 4.91 0.73 0.15 3.13 2.19 5.33 4.53 2.2 2.35 5.35 5.24 7 6.44 1.65 1.2 3.9 2.38 5 2.63 1.1 0.25 3.35 1.15 5 2.01 1.65 0.85 3.23 1.14 3.5 0.64 0.3-0.55 1.1-0.54 2 0.02 0.83 0.51 1.95 0.95 2.5 0.98 0.55 0.02 0.28-0.76-0.6-1.74-0.88-0.98-2-2.45-2.5-3.27-0.49-0.81 0.9-0.25 3.1 1.26 2.73 1.88 4.1 2.35 4.33 1.49q0.33-1.25 1.82 0.74c0.82 1.1-0.01-0.83-1.83-4.29-1.83-3.46-3.66-6.27-4.07-6.25-0.41 0.02-0.66-0.3-0.54-0.71 0.11-0.41-0.64-2.33-1.66-4.25-1.02-1.92-2.58-4.05-3.45-4.72-0.88-0.67-1.26-1.23-0.85-1.25 0.41-0.02-0.39-1.27-1.79-2.78-1.4-1.51-2.3-3.31-2-4 0.3-0.69 0.09-1.02-0.46-0.75-0.55 0.27-1.34-0.11-1.75-0.85-0.41-0.75-2.66-2.55-5-4-3.64-2.27-4.36-2.43-5-1.11-0.61 1.25-1.46 0.83-4.54-2.25-2.6-2.6-4.01-3.41-4.5-2.57-0.5 0.85-1.5 0.41-3.39-1.5-1.48-1.5-5.02-5.2-7.87-8.22-2.85-3.02-5.9-6.63-6.78-8-0.88-1.38-3.19-4.51-5.13-6.96-1.95-2.46-5.34-6.15-7.54-8.21-2.2-2.06-4.45-3.8-5-3.86-0.55-0.06-1.67-0.7-2.5-1.42-0.83-0.72-4.65-3.4-8.5-5.97-3.85-2.56-7.23-4.43-7.5-4.15-0.27 0.29-1.85-0.45-3.5-1.63-1.65-1.18-5.75-4.88-9.11-8.22-3.37-3.35-7.53-8.33-9.25-11.08-1.73-2.75-3.77-6.35-4.54-8-0.78-1.65-3.25-4.46-5.51-6.25-2.25-1.79-4.31-4.04-4.59-5-0.27-0.96-2.3-2.76-4.5-4-2.49-1.4-4.09-3.07-4.25-4.42-0.18-1.6-1.38-2.53-4.5-3.5-3.06-0.96-4.24-1.86-4.21-3.21 0.02-1.04-0.99-2.55-2.25-3.36-2.09-1.35-2.29-1.32-2.29 0.38zm-177.95 79.86c-0.3 0.55-0.21 1.02 0.2 1.04 0.41 0.02-0.38 0.64-1.75 1.38-1.38 0.74-7.45 5.04-13.5 9.56-6.05 4.52-15.39 10.87-20.75 14.12-5.36 3.24-9.75 6.13-9.75 6.4 0 0.27 0.9 0.05 2-0.5 1.58-0.79 2.62-0.48 5 1.5l3 2.5c-4.84 1.62-5.02 1.86-3.5 1.91 1.1 0.03 3.8 1.4 6 3.04 2.2 1.63 6.92 3.73 10.5 4.65 4.63 1.19 6.57 1.35 6.75 0.54 0.17-0.78 1.54-0.9 4.31-0.39 2.9 0.54 4.26 0.39 4.75-0.52 0.56-1.03 1.27-1.03 3.69 0 1.65 0.7 4.47 2.39 6.27 3.77 1.8 1.37 3.26 3.06 3.25 3.75-0.01 0.75 0.68 1.01 1.73 0.65 1.43-0.48 1.61-0.2 1 1.5-0.48 1.34-0.3 2.34 0.5 2.76 0.86 0.45 0.32 1.41-1.75 3.09-2.56 2.07-2.63 2.24-0.5 1.18 1.37-0.68 6.1-3.48 10.5-6.21 4.4-2.74 9.44-6.38 11.19-8.1 2.08-2.03 3.04-3.82 2.76-5.12-0.23-1.1-1.11-2.56-1.94-3.25-0.83-0.69-1.51-1.48-1.51-1.75 0-0.27-0.04-0.61-0.08-0.75-0.05-0.14-0.16-1.24-0.25-2.46-0.1-1.21-2.53-4.48-5.42-7.25-2.89-2.77-5.49-4.7-5.78-4.29-0.29 0.41-0.51-0.04-0.5-1 0.02-0.96-0.68-2.09-1.54-2.5-0.87-0.41-2.72-3-4.12-5.75-1.39-2.75-3.15-5.67-3.9-6.5-0.75-0.83-1.37-2.06-1.38-2.75-0.02-0.69-0.48-1.02-1.03-0.75-0.55 0.27-1.05-0.06-1.12-0.75-0.06-0.69-0.06-1.59 0-2 0.07-0.41-0.67-0.42-1.63-0.02-1.23 0.51-1.54 0.36-1.04-0.5 0.4-0.68 0.53-1.23 0.3-1.23-0.23 0-0.66 0.45-0.96 1zm79.14 33.5c-2.03 2.48-3.35 4.68-2.94 4.9 0.41 0.23 2.33-0.47 4.25-1.54 2.94-1.65 3.08-1.87 0.89-1.37l-2.62 0.59c3.74-5.49 4.67-7.08 4.47-7.08-0.19 0-2.01 2.02-4.05 4.5zm-143.69 8.63c-5.23 2.76-8.6 4.7-7.5 4.32 1.1-0.38 3.91-0.64 6.25-0.57 2.34 0.07 4.48-0.33 4.75-0.88 0.27-0.55-0.06-1.34-0.74-1.75-0.91-0.55-0.98-0.36-0.25 0.74 0.77 1.17 0.66 1.31-0.51 0.64-0.96-0.54-1.14-1.14-0.5-1.66 0.55-0.45 3.25-1.97 6-3.37 2.75-1.4 4.32-2.54 3.5-2.52-0.83 0.01-5.77 2.29-11 5.05zm-117.42-3.38c0.23 0.14-0.37 1.11-1.33 2.16-0.96 1.06-3.87 5.44-6.47 9.75-2.59 4.31-4.73 8.18-4.75 8.59-0.01 0.41 0.31 0.64 0.72 0.5 0.41-0.14 0.86 0.09 1 0.5 0.14 0.41 0.25 1.2 0.25 1.75 0 0.55-0.52 0.66-1.16 0.25q-1.16-0.75-0.75 1.12c0.27 1.21 3.37 3.19 8.91 5.69 4.67 2.1 9.85 4.04 11.5 4.31 1.65 0.27 6.37 0.94 10.5 1.5 4.12 0.55 9.75 0.89 12.5 0.76 2.75-0.13 8.09-1.34 11.88-2.68 3.78-1.35 7.04-2.79 7.25-3.2 0.2-0.41 1.38-0.76 2.62-0.78 1.24-0.02 3.15-0.7 4.25-1.52 1.94-1.44 1.91-1.48-0.75-1.47-1.55 0.01-2.74-0.52-2.73-1.23 0.01-0.78 1.04-1.11 2.75-0.88 1.5 0.21 5.54-0.47 8.97-1.5 3.43-1.03 6.13-2 6-2.15-0.13-0.16-2.94 0.4-6.24 1.23-3.3 0.83-6.79 1.52-7.75 1.53-0.96 0.01-1.75-0.65-1.75-1.48 0-0.83 0.35-1.61 0.79-1.75 0.43-0.14 1.99-2.27 3.47-4.75 1.47-2.48 2.36-4.85 1.96-5.28-0.4-0.43-2.07-0.76-3.72-0.73-1.65 0.02-3.45-0.41-4-0.97-0.55-0.55-2.8-1.26-5-1.58-2.2-0.32-7.83-0.7-12.5-0.85-4.68-0.14-9.51-0.79-10.75-1.43-1.24-0.64-2.75-0.82-3.36-0.41-0.61 0.41-1.4 0.29-1.75-0.28-0.35-0.56-3.34-1.88-6.64-2.93-3.3-1.04-7.88-1.93-10.17-1.97-2.29-0.04-3.98 0.04-3.75 0.18z"/>
		<path id="Path 3" class="s3" d="m412 347.1c1.14 0.81 0.79 0.92-1.5 0.45-2.21-0.45-2.61-0.34-1.5 0.4 1.26 0.86 1.18 1.05-0.5 1.19-1.1 0.1-2.51 0.22-3.13 0.27-0.62 0.05-0.84 0.53-0.5 1.07 0.36 0.56-0.02 0.72-0.87 0.38-0.9-0.36-1.5-0.05-1.5 0.77 0 0.75 0.11 1.37 0.25 1.37 0.14 0 1.26-0.66 2.5-1.46 1.24-0.8 3.15-1.61 4.25-1.78 1.1-0.17 2.56-0.64 3.25-1.04 0.69-0.4 1.02-1.17 0.75-1.72-0.27-0.55-1.06-0.99-1.75-0.98q-1.27 0 0.25 1.08zm193.5-0.16c-1.65 0.4-4.8 1.67-7 2.82-2.2 1.15-5.74 3.81-7.88 5.91-2.13 2.11-10.45 12.53-18.5 23.16-8.04 10.63-15.75 20.86-17.12 22.74-1.37 1.88-4.52 6-6.99 9.17-2.47 3.17-7.86 10.03-11.98 15.26-4.11 5.23-11.07 13.77-15.47 19-4.39 5.23-6.99 8.71-5.78 7.75 1.22-0.96 2.67-1.52 3.22-1.25 0.55 0.27 1-0.18 1-1 0-0.83 0.45-1.5 1-1.5 0.55 0 1 0.45 1 1 0 0.55 1.58 1 3.5 1 1.92 0 3.5 0.45 3.5 1 0 0.66 0.94 0.67 2.75 0.04 1.51-0.53 3.42-1.67 4.25-2.54 0.83-0.88 2.06-1.57 2.75-1.54 0.69 0.02 2.75-1.42 4.59-3.21 1.84-1.79 5.21-4.94 7.5-7 2.29-2.06 4.61-3.75 5.16-3.75 0.55 0 2.91-1.61 5.25-3.58 2.34-1.97 5.94-4.9 8-6.5 2.06-1.61 4.09-3.01 4.5-3.11 0.41-0.11 2.44-2.25 4.52-4.75 2.07-2.51 4.21-4.56 4.75-4.56 0.55 0 1.89-1.46 2.99-3.25 1.09-1.79 2.33-3.24 2.74-3.23 0.41 0.01 2.55-2.73 4.75-6.09 2.2-3.36 4.03-6.41 4.06-6.77 0.04-0.36 0.69-2.68 1.45-5.16 1.1-3.61 1.5-4.1 2.02-2.5 0.46 1.41 1.18-0.2 2.44-5.5 0.99-4.13 2.45-9.08 3.26-11 0.81-1.93 1.67-5.98 1.91-9 0.23-3.02 1.31-6.96 2.39-8.75 1.68-2.77 1.75-3.32 0.47-3.75-0.83-0.27-1.61-0.45-1.75-0.4-0.14 0.06-1.6 0.43-3.25 0.84zm6.97 77.63c-1.08 0.87-1.41 1.32-0.72 1 0.69-0.31 1.32-0.01 1.4 0.68 0.09 0.69 0.21 1.7 0.28 2.25 0.07 0.55 0.54 1.67 1.06 2.5 0.51 0.82 2.24 3.98 3.83 7 1.59 3.02 3.36 5.95 3.93 6.5q1.07 1.04 0.4-0.75c-0.6-1.61-0.45-1.63 1.85-0.25 1.38 0.82 2.5 2.4 2.5 3.5 0 1.48 1.11 2.35 4.25 3.33 3.12 0.97 4.32 1.9 4.5 3.5 0.16 1.35 1.76 3.02 4.25 4.42 2.2 1.24 4.23 3.04 4.5 4 0.28 0.96 2.34 3.21 4.59 5 2.26 1.79 4.73 4.6 5.51 6.25 0.77 1.65 2.81 5.25 4.54 8 1.72 2.75 5.88 7.73 9.25 11.08 3.36 3.34 7.46 7.04 9.11 8.22 1.65 1.18 3.23 1.92 3.5 1.63 0.27-0.28 3.65 1.59 7.5 4.15 3.85 2.57 7.67 5.25 8.5 5.97 0.83 0.72 1.81 1.23 2.18 1.13 0.38-0.1 2.63 1.64 5 3.86 2.38 2.22 5.91 6.04 7.86 8.5 1.94 2.45 4.25 5.58 5.13 6.96 0.88 1.37 3.93 4.98 6.78 8 2.85 3.02 6.39 6.72 7.87 8.22 1.89 1.91 2.89 2.35 3.39 1.5 0.49-0.84 1.9-0.03 4.5 2.57 3.08 3.08 3.93 3.5 4.54 2.25 0.64-1.32 1.35-1.18 5 1.03 2.34 1.41 5.49 4.56 7 7 1.51 2.44 2.98 4.43 3.25 4.43 0.27 0-0.45-1.69-1.62-3.75-1.17-2.06-4.77-8.36-8-14-3.23-5.64-6.11-10.25-6.38-10.25-0.27 0-0.27 0.45 0 1 0.27 0.55 0.27 1 0 1-0.27 0-1.61-2.14-2.96-4.75-1.36-2.61-2.15-5.16-1.75-5.66 0.39-0.5 0.15-0.61-0.54-0.25-0.69 0.36-1.3 0.1-1.37-0.59-0.06-0.69-0.06-1.59 0-2 0.07-0.41-0.33-0.75-0.88-0.75-0.55 0-1 1.35-1 3 0 1.65-0.45 3-1 3-0.55 0-1-0.9-1-2 0-1.1-0.34-2-0.75-2.01-0.41-0.01-1.87-2.55-3.25-5.65l-2.5-5.65-1 6.68c-4.65-8.89-6.29-11.56-6.64-11.67-0.34-0.11-2.69-3.58-5.21-7.7-2.52-4.13-4.61-8.18-4.63-9-0.04-1.16-0.22-1.21-0.79-0.19-0.52 0.94-1.51 0.3-3.48-2.25-1.51-1.96-3.42-3.56-4.25-3.56-0.83 0-1.49 0.56-1.48 1.25 0 0.69-1.68-0.43-3.75-2.49-2.08-2.05-4.33-3.74-5.02-3.75-0.69 0-2.83-1.81-4.75-4.01-1.92-2.2-3.95-3.77-4.5-3.5-0.55 0.27-4.04-2.71-7.75-6.63-3.71-3.93-8.89-9.44-11.52-12.25-2.62-2.82-4.87-5.9-5-6.85-0.12-0.95-2.48-4.64-5.23-8.2-2.75-3.55-5.56-6.26-6.25-6.01-0.69 0.24-3.39-1.3-6-3.42-2.61-2.12-6.44-4.37-8.5-5-2.16-0.66-3.75-1.78-3.75-2.64 0-0.97-1.94-2.03-5.5-3-3.02-0.83-5.85-1.5-6.28-1.5-0.42 0-1.66 0.71-2.75 1.57zm-186.47 0.83c-1.37 0.73-2.81 1.95-3.2 2.71-0.4 0.81 0.61 3.49 2.41 6.39 1.7 2.75 3.25 4.44 3.44 3.75 0.21-0.73 2-1.25 4.35-1.25 2.28 0 4.21 0.54 4.48 1.25 0.26 0.69 2.53 1.92 5.04 2.75 2.64 0.87 4.76 2.24 5.02 3.25 0.25 0.96 0.91 1.75 1.46 1.75 0.55 0 2.35 1.24 4 2.75 1.65 1.51 3.01 3.2 3.02 3.75 0.01 0.55 1.92 3.04 4.25 5.54 2.33 2.5 4.81 5.65 5.52 7 0.71 1.35 1.38 3.47 1.5 4.71 0.12 1.24 0.21 2.26 0.21 2.26 0 0.01 2.7-2.76 6-6.14 3.3-3.38 5.44-5.86 4.75-5.51-0.69 0.35-1.48 0.19-1.75-0.36-0.27-0.55-1.06-0.75-1.75-0.45-0.74 0.32-2.95-1.84-5.38-5.25-2.28-3.19-7.28-9.18-11.13-13.3-4.56-4.89-9.22-8.7-13.37-10.94-3.5-1.89-6.93-4.02-7.62-4.75-0.69-0.72-2.94-1.29-5-1.27-2.06 0.02-4.87 0.64-6.25 1.36zm33 85.9c-4.12 3.99-9.75 9.22-12.5 11.61-4.18 3.63-4.46 4.08-1.75 2.72 1.79-0.9 3.2-1.29 3.13-0.88-0.06 0.41-0.06 1.31 0 2 0.07 0.69 0.57 1.02 1.12 0.75 0.55-0.28 1.01 0.06 1.03 0.75 0.01 0.69 0.63 1.92 1.38 2.75 0.75 0.83 2.51 3.75 3.9 6.5 1.4 2.75 3.25 5.34 4.12 5.75 0.86 0.41 1.56 1.54 1.54 2.5-0.01 0.96 0.21 1.41 0.5 1 0.29-0.41 1.54 0.26 2.78 1.5 1.24 1.24 2.1 2.7 1.92 3.25-0.19 0.55-0.07 0.66 0.25 0.25 0.32-0.41 1.82 0.38 3.33 1.77 1.51 1.39 2.77 3.3 2.79 4.25 0.03 0.95 0.36 2.29 0.75 2.98 0.39 0.69 0.37 1.24-0.04 1.23-0.41-0.01 0.04 0.56 1.01 1.25 0.97 0.7 1.98 2.28 2.25 3.52 0.36 1.63-0.26 2.81-2.26 4.28-1.51 1.12-2.41 2.02-2 2 0.41-0.01 3.34-1.93 6.5-4.25 3.16-2.32 7.21-5.47 9-7 1.79-1.53 2.91-2.78 2.5-2.77-0.41 0 0.38-0.78 1.75-1.74 1.38-0.97 2.84-1.65 3.25-1.51 0.41 0.13 0.42-0.55 0.03-1.51-0.54-1.3-0.35-1.6 0.75-1.16 1.13 0.45 1.01-0.29-0.53-3.25-1.1-2.1-2.34-3.83-2.75-3.83-0.41-0.01-0.77 1-0.79 2.24-0.03 2.24-0.03 2.24-1.25 0.17-0.66-1.15-2.11-3.27-3.21-4.71-1.1-1.44-3.12-2.85-4.5-3.13-1.37-0.28-4.19-2.44-6.25-4.79-2.06-2.36-3.75-4.63-3.75-5.04 0-0.41-1.35-3-3-5.75-1.65-2.75-2.77-5-2.5-5 0.27 0-0.29-1.36-1.25-3.01-0.96-1.66-2.31-3.01-3-3-0.69 0-1.25-0.44-1.25-0.99 0-0.55 0.44-1.11 0.97-1.25 0.54-0.14 1.11-1.15 1.28-2.25 0.17-1.1 0.63-2.56 1.03-3.25 0.4-0.69 1.28-0.92 1.97-0.51q1.24 0.73 0.5-0.5c-0.41-0.68-0.86-1.23-1-1.22-0.14 0-3.62 3.28-7.75 7.28zm-182.82 31.02c-0.1 1.2-0.75 2.75-1.43 3.45-0.69 0.7-1.48 1.05-1.75 0.77-0.27-0.28-2.46 2.75-4.85 6.73-2.39 3.98-4.75 8.02-5.25 8.98-0.81 1.58-0.58 1.65 2.35 0.76 2.58-0.78 4.7-0.53 10.25 1.24 3.85 1.22 7.29 2.68 7.64 3.23 0.35 0.56 1.14 0.68 1.75 0.27 0.61-0.41 2.12-0.23 3.36 0.41 1.24 0.64 6.07 1.29 10.75 1.43 4.68 0.15 10.3 0.54 12.5 0.86 2.2 0.33 4.45 0.98 5 1.45 0.55 0.48 2.74 1.03 4.87 1.23 3.77 0.36 3.96 0.22 6.99-5.13 1.72-3.03 3.01-6.06 2.88-6.75-0.13-0.69 0.21-1.03 0.76-0.75 0.64 0.32 0.67-0.12 0.08-1.25-0.5-0.96-2.86-2.72-5.25-3.91-2.38-1.18-6.13-2.89-8.33-3.8-2.2-0.9-5.35-1.84-7-2.08-1.65-0.24-5.48-0.65-8.5-0.91-3.37-0.29-6.25-1.16-7.42-2.26-1.06-0.98-1.51-1.14-1-0.34 0.59 0.93 0.56 1.27-0.08 0.95-0.55-0.28-2.8-1.32-5-2.31-2.63-1.18-4.09-1.42-4.25-0.7-0.15 0.69-1.07 0.82-2.4 0.36-1.19-0.41-2.65-1.42-3.25-2.25-0.61-0.83-1.58-1.58-2.16-1.68-0.59-0.1-1.15 0.8-1.26 2z"/>
		<path id="Path 4" class="s4" d="m557.55 520c-0.3 0.55-0.89 0.79-1.3 0.53-0.41-0.26-4.8 4.3-9.75 10.14-4.95 5.83-10.99 13.13-13.43 16.22-4 5.06-4.1 5.31-1 2.48 1.94-1.76 4.08-2.89 4.93-2.59 0.83 0.3 2.01 1.25 2.63 2.13 0.62 0.87 1.09 2.04 1.04 2.59-0.05 0.55-3.26 2.45-7.13 4.23-3.87 1.78-6.48 3.24-5.79 3.25 0.69 0.01 4.29-1.37 8-3.08 3.71-1.7 12.83-5.57 20.25-8.58 7.42-3.02 13.95-5.77 14.5-6.12 0.55-0.36 1.68-0.76 2.5-0.9 0.83-0.14 1.73-0.74 2-1.33 0.28-0.59 1.7-1.16 3.17-1.27 1.46-0.11 2.48-0.43 2.26-0.7-0.22-0.27 0.38-1.09 1.33-1.81 1.52-1.13 1.45-1.17-0.51-0.25-1.24 0.59-2.7 1.06-3.25 1.06-0.55 0-0.77-0.45-0.5-1 0.28-0.55-0.06-0.98-0.75-0.96-0.9 0.04-0.83-0.44 0.25-1.69 1.29-1.49 1.3-1.6 0.02-0.79-1.16 0.74-1.32 0.57-0.75-0.81q0.74-1.75-1.31-3.5c-1.13-0.96-2.25-2.54-2.5-3.5-0.25-0.96-1.7-2.05-3.21-2.42-1.51-0.37-3.05-0.7-3.42-0.75-0.36-0.04-1.04-0.43-1.5-0.86-0.45-0.43-2.05-0.76-3.53-0.75-1.49 0.02-2.95 0.48-3.25 1.03zm107.84 2.25c0.24 1.24 2.73 6.3 5.52 11.25 2.8 4.95 5.09 8.66 5.09 8.25 0-0.41-0.45-1.65-1-2.75-0.76-1.52-0.64-2.12 0.5-2.5 0.83-0.27 1.5-0.05 1.5 0.5 0 0.55 0.9 1 2 1 1.1 0 1.99 0.34 1.98 0.75-0.01 0.41 1.45 2.67 3.25 5.01 1.8 2.35 3.83 4.26 4.52 4.25 0.69 0 1.25 0.33 1.25 0.74-0.01 0.41 1.79 1.54 4 2.5 2.2 0.96 4.34 2.67 4.75 3.79 0.41 1.13 1.42 2.23 2.25 2.45 0.83 0.23 8.48 7.29 17 15.71 8.53 8.41 16.85 16.07 18.5 17.02 1.65 0.95 5.25 3.35 8 5.34 2.75 1.98 6.25 3.91 7.79 4.27 1.7 0.41 2.57 1.16 2.25 1.92-0.3 0.69-0.09 1.02 0.46 0.75 0.55-0.27 1.23 0.4 1.5 1.5 0.28 1.12 1.6 2.22 3 2.5 1.4 0.28 2.72 1.38 3 2.5 0.28 1.1 0.84 1.95 1.25 1.88 0.41-0.06 1.42-0.06 2.25 0.02 1.33 0.12 1.33 0.24 0 1.1q-1.5 0.97-0.25 0.98c0.69 0.01 1.59 0.14 2 0.29 0.41 0.14 1.31 0.59 2 1 0.69 0.4 1.25 1.18 1.25 1.73 0 0.55-1.01 1.17-2.25 1.37-1.24 0.2 0.67 0.4 4.25 0.43 3.58 0.03 7.96-0.13 9.75-0.37 1.79-0.24 3.03-0.88 2.75-1.43-0.27-0.55-0.05-1 0.5-1 0.55 0 1.44 0.79 1.97 1.75 0.53 0.96 0.98 1.3 1 0.75 0.02-0.55-3-6.25-6.72-12.67-3.71-6.41-7.61-12.26-8.65-13-1.2-0.84-1.63-1.88-1.18-2.83 0.45-0.92 0.22-0.84-0.6 0.21-1.23 1.58-1.61 1.51-5.32-0.99-2.2-1.48-3.59-2.02-3.1-1.21 0.5 0.82 1.62 2.29 2.5 3.27 0.88 0.98 1.15 1.76 0.6 1.74-0.55-0.03-1.67-0.47-2.5-0.98-0.9-0.56-1.7-0.57-2-0.02-0.27 0.5-1.85 0.21-3.5-0.64-1.65-0.86-3.9-1.76-5-2.01-1.1-0.25-3.35-1.43-5-2.63-1.65-1.2-4.8-4.09-7-6.44-2.2-2.34-4.6-4.38-5.33-4.53-0.73-0.15-3.43-2.36-6-4.91-2.57-2.55-10.07-10.15-16.67-16.89-6.6-6.73-15.15-14.81-19-17.94-3.85-3.13-11.27-7.8-16.5-10.37-5.22-2.57-10.3-4.67-11.27-4.66-1.31 0-1.66 0.6-1.34 2.25zm-263.99 32.75c0.33 0.55 0.04 1.05-0.65 1.12-0.69 0.06-1.59 0.06-2 0-0.41-0.07-0.74 0.44-0.72 1.13 0.01 0.69-0.32 0.93-0.75 0.53-0.43-0.39-2.02-0.06-3.53 0.75-1.51 0.81-2.56 1.81-2.32 2.22 0.24 0.41-1.84 1.88-4.62 3.25-2.78 1.38-5.23 2.84-5.43 3.25-0.21 0.41 0.18 1.09 0.86 1.5 0.91 0.55 0.98 0.35 0.26-0.75-0.72-1.1-0.65-1.3 0.26-0.75 0.68 0.41 1.06 1.09 0.84 1.5-0.22 0.41-1.91 0.83-3.75 0.93-1.84 0.1-4-0.35-4.79-1-1.17-0.96-1.27-0.9-0.5 0.3 0.74 1.16 0.57 1.32-0.81 0.75-1.24-0.52-1.53-0.37-1 0.5 0.53 0.87 0.24 1.02-1 0.5-0.99-0.41-1.75-0.29-1.75 0.27 0 0.56-0.76 0.68-1.75 0.27-1.24-0.52-1.53-0.37-1 0.5 0.44 0.72 0.13 1.44-0.75 1.73-0.82 0.27-2.51 0.5-3.75 0.49-1.24 0-3.15 0.66-4.25 1.47-1.1 0.81-2.35 1.15-2.78 0.76-0.43-0.4-0.76-0.16-0.75 0.53 0.02 0.69-0.53 1.16-1.22 1.04-0.69-0.11-5.07 1.11-9.75 2.71-4.67 1.6-8.84 2.82-9.25 2.71-0.41-0.12-0.75 0.24-0.75 0.79 0 0.55-0.9 0.77-2 0.5-1.14-0.29-1.79-0.07-1.5 0.5 0.28 0.55-1.86 1.5-4.75 2.11-2.89 0.62-6.25 0.95-7.48 0.75-1.31-0.21-2.24 0.16-2.25 0.89-0.01 0.71 1.18 1.24 2.73 1.23 2.66-0.01 2.69 0.03 0.75 1.47-1.1 0.82-3.01 1.5-4.25 1.52-1.24 0.02-2.42 0.37-2.62 0.78-0.21 0.41-3.47 1.85-7.25 3.2-3.79 1.34-9.13 2.55-11.88 2.68-2.75 0.13-8.37-0.21-12.5-0.76-4.12-0.56-8.85-1.23-10.5-1.5-1.65-0.27-6.82-2.21-11.5-4.31-5.54-2.5-8.64-4.48-8.91-5.69q-0.41-1.87 0.75-1.12c0.64 0.41 1.16 0.3 1.16-0.25 0-0.55 0.01-1.34 0.03-1.75 0.01-0.41-0.66-0.86-1.5-1-0.95-0.15-1.53 0.51-1.53 1.75 0 1.1-0.45 2-1 2-0.55 0-3.99 5.06-7.66 11.25-3.66 6.19-6.84 11.7-7.07 12.25-0.23 0.55 0.76-0.35 2.19-2 1.52-1.76 2.38-2.27 2.07-1.25-0.31 1.04 0.08 1.95 0.97 2.25q1.5 0.5 1.5 4.5v4c85.81-0.69 102.11-1.21 112.5-2.4 7.7-0.89 18.95-2.49 25-3.56 6.05-1.08 16.18-3.28 22.5-4.9 6.33-1.62 16-4.62 21.5-6.67 5.5-2.05 13.6-5.52 18-7.72 4.4-2.2 8.33-4.51 8.73-5.13 0.41-0.61 0.75-0.78 0.75-0.37 0.01 0.41 1.35-0.49 2.97-2 1.63-1.51 2.65-3.2 2.28-3.75-0.38-0.55-0.58-1.79-0.46-2.75q0.23-1.74-1.27-1.25c-0.82 0.27-1.49-0.06-1.48-0.75 0.01-0.69-1.45-2.37-3.25-3.75-1.8-1.37-4.62-3.07-6.27-3.77-2.42-1.03-3.13-1.03-3.69 0-0.49 0.91-1.85 1.06-4.75 0.52-2.77-0.51-4.14-0.39-4.31 0.39-0.18 0.81-2.12 0.65-6.75-0.54-3.57-0.92-8.3-3.02-10.5-4.65-2.2-1.64-4.9-3.01-6-3.04-1.52-0.05-1.34-0.29 0.75-0.99l2.75-0.92c-5.81-4.7-7.66-6.05-7.85-6.03-0.2 0.01-0.08 0.48 0.25 1.03z"/>
		<path id="Path 5" class="s5" d="m674.47 537.54c-1.08 0.88-1.3 1.24-0.49 0.78 1.14-0.63 1.31-0.42 0.75 0.93-0.44 1.05-0.33 1.55 0.27 1.25 0.55-0.27 1.01 0.29 1.02 1.25 0.01 0.96 3.57 8.05 7.9 15.75 4.33 7.7 8.98 16.03 10.33 18.5 1.36 2.48 5.06 9.23 8.24 15 3.18 5.78 6.78 12.08 8 14 1.21 1.92 3.73 4.87 5.61 6.56 1.87 1.68 5.2 3.7 7.4 4.5 3.01 1.08 9.22 1.44 25.17 1.44 11.64 0 21.54-0.33 22-0.73 0.46-0.4 0.27-1.41-0.42-2.25-0.69-0.83-1.59-1.47-2-1.4-0.41 0.06-1.42 0.06-2.25-0.02-1.33-0.12-1.33-0.24 0-1.1 1.33-0.86 1.33-0.98 0-1.1-0.83-0.08-1.84-0.08-2.25-0.02-0.41 0.07-0.98-0.78-1.25-1.88-0.28-1.12-1.6-2.22-3-2.5-1.4-0.28-2.72-1.38-3-2.5-0.28-1.1-0.95-1.77-1.5-1.5-0.55 0.28-0.76-0.06-0.46-0.75 0.32-0.76-0.55-1.51-2.25-1.92-1.54-0.36-5.04-2.29-7.79-4.27-2.75-1.99-6.35-4.39-8-5.34-1.65-0.95-9.98-8.61-18.5-17.02-8.53-8.42-16.17-15.48-17-15.71-0.83-0.22-1.84-1.32-2.25-2.45-0.41-1.12-2.55-2.83-4.75-3.79-2.21-0.96-4.01-2.09-4-2.5 0-0.41-0.56-0.74-1.25-0.74-0.69 0.01-2.72-1.9-4.52-4.25-1.8-2.34-3.26-4.6-3.25-5.01 0.01-0.41-0.88-0.75-1.98-0.75-1.1 0-2.13-0.47-2.28-1.03-0.16-0.6-1.11-0.36-2.25 0.57zm-140.45 10.02c-0.56 0.79-1.47 1.22-2.02 0.94-0.55-0.27-1.56 0.29-2.25 1.25-1.07 1.5-1.02 1.6 0.3 0.75 0.85-0.55 0.64-0.23-0.47 0.71-1.11 0.94-2.03 2.58-2.05 3.65-0.02 1.2-0.6 1.8-1.53 1.58-0.83-0.19-2.63 0.86-4 2.35-1.59 1.71-1.77 2.14-0.5 1.18 1.1-0.83 3.64-1.51 5.65-1.49 2.01 0.01 3.48-0.32 3.25-0.73-0.22-0.41 0.27-0.97 1.1-1.25 0.83-0.27 2.06-0.16 2.74 0.25q1.23 0.74 0.5-0.5c-0.48-0.81 0.22-1.64 2.01-2.36 1.51-0.61 3.31-0.83 4-0.5 0.7 0.34 1.13 0.06 0.98-0.64-0.15-0.69-0.94-2.18-1.75-3.32-0.81-1.13-2.26-2.34-3.21-2.69-1-0.36-2.17-0.01-2.75 0.82zm-299.5 61.73c-1.64 1.77-3.77 4.45-4.75 5.96l-1.77 2.75h12c0-6.67-0.5-8.17-1.5-8.5-0.83-0.27-1.33-1.17-1.13-2 0.21-0.83 0.32-1.48 0.25-1.46-0.07 0.02-1.46 1.48-3.1 3.25zm550.84 6.71c0.35 0.55-0.37 1.16-1.61 1.36q-2.23 0.37 1 0.5c2 0.09 3.26-0.34 3.27-1.11q0-1.27 1.07 0.25c0.8 1.14 0.98 1.16 0.74 0.11-0.18-0.76-1.4-1.55-2.72-1.75-1.42-0.22-2.13 0.04-1.75 0.64z"/>
		<path id="Path 6" class="s6" d="m513.98 538.75l-9.48 9.75c15.12-14.73 19.51-19.11 19.51-19.25-0.01-0.14-0.13-0.25-0.28-0.25-0.15 0-4.54 4.39-9.75 9.75z"/>
		<path id="Path 7" class="s7" d="m251 618.75c12.93 0.16 33.63 0.16 46 0 12.38-0.16 1.8-0.29-23.5-0.29-25.3 0-35.43 0.13-22.5 0.29zm494-0.01c4.67 0.19 11.88 0.19 16 0 4.13-0.18 0.3-0.34-8.5-0.34-8.8 0.01-12.17 0.16-7.5 0.34z"/>
		<path id="Path 8" class="s8" d="m778.5 618.72c1.65 0.22 4.8 0.22 7 0.01 2.2-0.22 0.85-0.4-3-0.4-3.85-0.01-5.65 0.17-4 0.39z"/>
		<path id="Path 9" class="s0" d="m780 485.5c-0.03 3.3 0.16 5.77 0.42 5.5 0.26-0.27 0.73-2.19 1.03-4.25 0.3-2.06 0.11-4.54-0.42-5.5-0.72-1.29-0.98-0.18-1.03 4.25z"/>
		<path id="Path 10" class="s1" d="m768.92 477.25c-0.05 0.14-0.16 1.49-0.25 3-0.1 1.62 0.34 2.75 1.08 2.75 0.72 0 1.25-1.27 1.25-3 0-1.65-0.45-3-1-3-0.55 0-1.04 0.11-1.08 0.25zm-10.74 4c0.17 1.24 0.77 2.58 1.32 2.98 0.55 0.41 1.34 0.75 1.75 0.75 0.41 0.01 0.75-1.33 0.75-2.98 0-2.37-0.44-3-2.07-3-1.59 0-2 0.54-1.75 2.25z"/>
		<path id="Path 11" class="s5" d="m370 602.68c-1.38 0.94-2.81 2.18-3.18 2.76-0.38 0.58-0.53 1.29-0.34 1.56 0.18 0.28-0.63 0.6-1.82 0.72-1.19 0.12-3.28 0.69-4.66 1.26-1.37 0.57-3.15 2.05-3.93 3.28-1.42 2.22-1.4 2.23 2.5 1.52 2.16-0.39 6.63-1 9.93-1.36 4.12-0.44 5.53-0.92 4.5-1.52-1.27-0.73-1.23-0.87 0.25-0.88 0.96-0.01 1.75-0.47 1.75-1.02 0-0.55 0.56-0.72 1.25-0.37 0.95 0.47 0.89 0.83-0.25 1.48-1.33 0.76-1.33 0.86 0 0.88 0.82 0.02 4.04-0.54 7.15-1.23 4.31-0.96 5.52-1.62 5.1-2.76-0.44-1.23-0.29-1.27 0.85-0.23 0.77 0.69 1.74 1.26 2.15 1.25 0.41-0.01 0.75-0.47 0.75-1.02 0-0.55-0.34-0.95-0.75-0.88-0.41 0.06-0.98 0.01-1.25-0.11-0.27-0.13-1.85-0.42-3.5-0.64-1.65-0.22-4.35-0.51-6-0.64-1.96-0.15-2.91 0.2-2.75 1.02 0.14 0.69-0.2 1.25-0.75 1.25-0.55 0-1.45-1.35-2-3-0.55-1.65-1.34-3-1.75-3.01-0.41 0-1.87 0.76-3.25 1.69zm24.85 1.8c-0.19 1.36 0.1 2.48 0.65 2.49 0.55 0 1.9-0.25 3-0.57 1.24-0.36 1.91-1.3 1.75-2.49q-0.24-1.92-2.65-1.91c-1.8 0-2.49 0.63-2.75 2.48zm386.52 2.52c0.29 0.83 0.21 1.88-0.17 2.33-0.39 0.46-0.7 2.16-0.7 3.78 0 2.38 0.38 2.89 2 2.65 1.1-0.17 1.89-0.86 1.75-1.53-0.14-0.68 0.2-1 0.75-0.73q1 0.5 0-1.5c-0.61-1.22-1.49-1.71-2.25-1.26q-1.24 0.73-0.5-0.5c0.41-0.68 0.27-2.03-0.33-2.99-0.6-0.99-0.84-1.1-0.55-0.25zm-447.47 5.52c-0.77 0.81-2.39 1.68-3.6 1.94-1.21 0.26-2.52 0.72-2.92 1.01-0.39 0.29 1.05 0.53 3.2 0.52 2.16 0 6.96-0.34 10.68-0.75 3.72-0.41 6.75-1.08 6.75-1.49-0.01-0.41-2.03-0.52-4.51-0.25-3.56 0.4-4.5 0.19-4.5-1 0-0.82-0.45-1.5-1-1.5-0.55 0-0.69 0.56-0.31 1.25 0.55 0.99 0.37 1-0.85 0.03-1.22-0.97-1.82-0.92-2.94 0.24z"/>
	</g>
</svg>