<svg version="1.2" xmlns="http://www.w3.org/2000/svg" viewBox="0 0 800 533" width="800" height="533">
	<style>
		.s0 { opacity: .95;fill: #040403 } 
	</style>
	<path id="Path 0" fill-rule="evenodd" class="s0" d="m395 166.73c3.02 0.29 7.98 1.43 11 2.53 3.02 1.11 7.52 3.47 10 5.24 2.65 1.9 7.01 6.89 10.59 12.12 3.35 4.88 11.34 17.09 17.75 27.13 6.41 10.04 11.55 18.43 11.41 18.66-0.14 0.22-6.66 3.37-14.5 7-7.84 3.62-14.43 6.48-14.65 6.34-0.22-0.14-5.88-9.25-12.59-20.25-6.71-11-13.17-21.06-14.35-22.35-1.19-1.28-3.29-2.93-4.66-3.65-1.38-0.72-3.63-1.12-5-0.88-1.38 0.23-3.47 1.42-4.66 2.65-1.2 1.23-6.77 11.23-12.39 22.23-5.61 11-13.48 26.3-17.48 34-6.72 12.94-7.52 14.06-10.62 14.76-1.84 0.42-5.37 0.76-7.85 0.75-2.48-0.01-8.55-0.69-13.5-1.52-4.95-0.82-9.23-1.77-9.5-2.09-0.27-0.33 8.95-19.29 20.5-42.15 11.55-22.85 22.46-43.51 24.25-45.9 1.79-2.39 5.16-5.62 7.5-7.18 2.34-1.55 6.27-3.63 8.75-4.62 2.48-0.98 6.75-2.13 9.5-2.56 2.75-0.43 7.48-0.54 10.5-0.26zm113 22.27c0.55 0 15.29 4.89 32.75 10.86 17.46 5.98 38.73 13.24 47.25 16.15 8.52 2.9 15.84 5.66 16.25 6.13 0.41 0.47-3.11 5.47-7.84 11.11-4.72 5.64-11.9 15.2-15.95 21.25-4.04 6.05-9.58 15.73-12.3 21.5-2.72 5.77-7.35 17.48-10.29 26-3.01 8.73-6.9 17.9-8.91 21-1.96 3.02-5.57 7.15-8.01 9.17-2.45 2.02-6.7 4.65-9.45 5.85-2.92 1.26-8.12 2.4-12.5 2.72-4.56 0.33-9.66 0.04-13-0.74-3.02-0.7-8.2-2.63-11.5-4.28-3.46-1.73-9.11-6.02-13.34-10.11-4.91-4.77-11.34-13.01-19.5-25-6.69-9.84-12.5-18.05-12.91-18.25-0.41-0.2-5.36 1.25-11 3.23-5.64 1.97-17.23 6.34-25.75 9.7-8.52 3.36-24.05 10.43-34.5 15.72-10.45 5.28-26.99 14.42-54.5 30.99h-22.5c-12.38 0-22.5-0.34-22.49-0.75 0-0.41 4.16-9.07 9.24-19.25 5.09-10.17 10.03-20.19 12.75-26l-3.75-1.86c-2.06-1.03-6.45-4.34-9.75-7.37-3.67-3.36-7.17-7.78-9-11.38-2.41-4.74-3.07-7.45-3.38-13.89-0.33-7.12-0.06-8.7 2.5-14.38 1.93-4.28 4.61-7.99 8.13-11.25 2.89-2.68 8.06-6.2 11.5-7.83 3.44-1.63 8.95-3.66 12.25-4.51 3.3-0.85 7.12-1.53 8.5-1.52q2.51 0.01-5 3.29c-4.13 1.8-9.52 4.65-12 6.33-2.48 1.69-5.79 4.6-7.37 6.47-1.58 1.87-3.78 5.2-4.88 7.4-1.52 3.05-1.91 5.46-1.62 10.16 0.29 4.86 1.01 7.06 3.41 10.5 1.67 2.39 5.49 5.81 8.5 7.62 3 1.81 8.16 4.13 11.46 5.16 3.3 1.03 9.82 2.41 14.5 3.07 5.28 0.74 12.48 0.94 19 0.52 5.77-0.37 15-1.53 20.5-2.58 5.5-1.05 15.18-3.55 21.5-5.54 6.32-2 14.65-4.88 18.5-6.41 3.85-1.52 14.43-6.25 23.5-10.51 9.07-4.26 22.57-10.33 30-13.5 7.43-3.16 20.25-8.02 28.5-10.8 8.25-2.78 20.4-6.48 27-8.23 6.6-1.75 12.34-3.36 12.75-3.57 0.41-0.21-0.47-2.53-1.96-5.14-1.49-2.61-5.77-9.59-9.5-15.5-3.73-5.91-6.79-10.97-6.79-11.25 0-0.27 0.45-0.5 1-0.5zm2 69.15c-7.98 2.26-17.99 5.4-22.25 6.98-5.33 1.97-7.54 3.26-7.09 4.12 0.36 0.69 4.25 6.65 8.65 13.25 4.39 6.6 9.87 14.25 12.16 17 2.37 2.85 6.18 5.97 8.85 7.25 2.88 1.39 5.54 2.01 6.93 1.63 1.24-0.34 3.06-1.35 4.04-2.25 0.99-0.9 2.88-4.56 4.2-8.13 1.33-3.57 3.84-11.67 5.58-18 1.74-6.32 4.23-15.1 5.53-19.5 1.3-4.4 2.37-8.34 2.38-8.75 0.01-0.41-0.32-0.7-0.73-0.65-0.41 0.06-3.67 0.74-7.25 1.52-3.58 0.77-13.02 3.26-21 5.53zm-180.5 49.85c0.27 0 1.85-0.68 3.5-1.5 1.65-0.82 3-1.73 3-2 0-0.27-1.11-0.5-2.47-0.5-1.46 0-2.89 0.82-3.5 2-0.57 1.1-0.8 2-0.53 2z"/>
</svg>