<?xml version="1.0" encoding="utf-8"?>
<!-- Generator: Adobe Illustrator 27.2.0, SVG Export Plug-In . SVG Version: 6.00 Build 0)  -->
<svg version="1.1" id="Layer_1" xmlns="http://www.w3.org/2000/svg" xmlns:xlink="http://www.w3.org/1999/xlink" x="0px" y="0px"
	 viewBox="0 0 16 16" style="enable-background:new 0 0 16 16;" xml:space="preserve">
<style type="text/css">
	.st0{fill:#009D52;}
	.st1{fill:#48AD71;}
</style>
<g>
	<g>
		<path class="st0" d="M12.8,1.5c-0.7,0-1.3,0.2-1.8,0.5c0.6,0.7,0.9,1.6,0.9,2.6c0,1-0.3,1.9-0.9,2.6c0.5,0.3,1.1,0.5,1.8,0.5
			c1.7,0,3.1-1.4,3.1-3.1C15.9,2.9,14.5,1.5,12.8,1.5z"/>
		<path d="M8.4,10.4l-0.8,0.7l0.4-2.4c-0.3,0-0.5,0-0.8-0.1C7,8.5,6.7,8.5,6.5,8.4L6.2,9.8c-1.4,0.1-2.5,1.1-2.8,2.6
			C3.1,14,4.3,15.7,6,16c1.7,0.3,3.3-0.8,3.6-2.5C9.8,12.3,9.3,11.1,8.4,10.4z"/>
		<g>
			<path class="st1" d="M10.3,2.6c-0.4,0.5-0.7,1.2-0.7,2c0,0.7,0.3,1.4,0.7,2C10.8,6,11,5.3,11,4.6C11,3.9,10.8,3.2,10.3,2.6z"/>
			<path class="st0" d="M9.6,4.6c0-0.7,0.3-1.4,0.7-2C9.8,1.9,8.9,1.5,7.9,1.5c-0.3,0-0.6,0-0.9,0.1c0.3,0.9,0.4,1.8,0.1,2.8
				C6.8,5.3,6.2,6,5.4,6.5c0,0,0,0,0,0.1c0,0,0,0,0,0c0,0,0.1,0.1,0.1,0.1c0,0,0,0,0,0l0,0c0.6,0.6,1.4,1,2.3,1c1,0,1.9-0.5,2.4-1.2
				C9.9,6,9.6,5.3,9.6,4.6z"/>
		</g>
		<g>
			<path class="st0" d="M6.2,2c-0.3-0.9-1-1.6-1.9-1.9c-1.6-0.5-3.4,0.3-3.9,2c-0.5,1.6,0.3,3.4,2,3.9c0.9,0.3,1.9,0.2,2.7-0.3
				c-0.2-0.6-0.3-1.4,0-2.1C5.1,3,5.6,2.4,6.2,2z"/>
			<path class="st1" d="M6.2,2C5.6,2.4,5.1,3,4.9,3.7c-0.2,0.7-0.2,1.4,0,2.1c0.6-0.4,1-0.9,1.3-1.6C6.4,3.4,6.4,2.7,6.2,2z"/>
		</g>
	</g>
</g>
</svg>
